# Blender 3.6.0
# www.blender.org
mtllib cornellbox1.mtl
o cornellBox
v -2.749328 0.000000 0.000000
v 2.762672 0.000000 0.000000
v 2.762672 -0.000000 -5.592000
v -2.717328 -0.000000 -5.592000
v 1.462672 -0.000000 -0.650000
v 1.942672 -0.000000 -2.250000
v 0.362672 -0.000000 -2.720000
v -0.137328 -0.000000 -1.140000
v -1.467328 -0.000000 -2.470000
v 0.112672 -0.000000 -2.960000
v -0.377328 -0.000000 -4.560000
v -1.957328 -0.000000 -4.060000
v -0.667328 5.480000 -2.270000
v -0.667328 5.480000 -3.320000
v 0.632672 5.480000 -3.320000
v 0.632672 5.480000 -2.270000
v -2.797328 5.488000 -0.000000
v -2.797328 5.487999 -5.592000
v 2.762672 5.487999 -5.592000
v 2.762672 5.488000 -0.000000
v -2.717328 -0.000000 -5.592000
v 2.762672 -0.000000 -5.592000
v 2.762672 5.487999 -5.592000
v -2.797328 5.487999 -5.592000
v 2.762672 -0.000000 -5.592000
v 2.762672 0.000000 0.000000
v 2.762672 5.488000 -0.000000
v 2.762672 5.487999 -5.592000
v -2.749328 0.000000 0.000000
v -2.717328 -0.000000 -5.592000
v -2.797328 5.487999 -5.592000
v -2.797328 5.488000 -0.000000
v 1.462672 1.650000 -0.650000
v 1.942672 1.650000 -2.250000
v 0.362672 1.650000 -2.720000
v -0.137328 1.650000 -1.140000
v -0.137328 -0.000000 -1.140000
v -0.137328 1.650000 -1.140000
v 0.362672 1.650000 -2.720000
v 0.362672 -0.000000 -2.720000
v 1.462672 -0.000000 -0.650000
v 1.462672 1.650000 -0.650000
v -0.137328 1.650000 -1.140000
v -0.137328 -0.000000 -1.140000
v 1.942672 -0.000000 -2.250000
v 1.942672 1.650000 -2.250000
v 1.462672 1.650000 -0.650000
v 1.462672 -0.000000 -0.650000
v 0.362672 -0.000000 -2.720000
v 0.362672 1.650000 -2.720000
v 1.942672 1.650000 -2.250000
v 1.942672 -0.000000 -2.250000
v -1.467328 3.300000 -2.470000
v 0.112672 3.300000 -2.960000
v -0.377328 3.300000 -4.560000
v -1.957328 3.300000 -4.060000
v -1.467328 -0.000000 -2.470000
v -1.467328 3.300000 -2.470000
v -1.957328 3.300000 -4.060000
v -1.957328 -0.000000 -4.060000
v -1.957328 -0.000000 -4.060000
v -1.957328 3.300000 -4.060000
v -0.377328 3.300000 -4.560000
v -0.377328 -0.000000 -4.560000
v -0.377328 -0.000000 -4.560000
v -0.377328 3.300000 -4.560000
v 0.112672 3.300000 -2.960000
v 0.112672 -0.000000 -2.960000
v 0.112672 -0.000000 -2.960000
v 0.112672 3.300000 -2.960000
v -1.467328 3.300000 -2.470000
v -1.467328 -0.000000 -2.470000
vn -0.0000 1.0000 -0.0000
vn -0.0000 -1.0000 -0.0000
vn -0.0000 -0.0000 1.0000
vn -1.0000 -0.0000 -0.0000
vn 0.9999 0.0117 0.0029
vn -0.9534 -0.0000 -0.3017
vn -0.2928 -0.0000 0.9562
vn 0.9578 -0.0000 0.2873
vn 0.2851 -0.0000 -0.9585
vn -0.9556 -0.0000 0.2945
vn -0.3017 -0.0000 -0.9534
vn 0.9562 -0.0000 -0.2928
vn 0.2962 -0.0000 0.9551
s 0
usemtl MeshSG1
f 1//1 2//1 3//1 4//1
f 8//2 7//2 6//2 5//2
f 12//2 11//2 10//2 9//2
f 17//2 18//2 19//2 20//2
f 21//3 22//3 23//3 24//3
f 33//1 34//1 35//1 36//1
f 37//6 38//6 39//6 40//6
f 41//7 42//7 43//7 44//7
f 45//8 46//8 47//8 48//8
f 49//9 50//9 51//9 52//9
f 53//1 54//1 55//1 56//1
f 57//10 58//10 59//10 60//10
f 61//11 62//11 63//11 64//11
f 65//12 66//12 67//12 68//12
f 69//13 70//13 71//13 72//13
usemtl MeshSG3
f 13//2 14//2 15//2 16//2
usemtl MeshSG5
f 25//4 26//4 27//4 28//4
usemtl MeshSG7
f 29//5 30//5 31//5 32//5
